<svg width="101" height="112" viewBox="0 0 101 112" fill="none" xmlns="http://www.w3.org/2000/svg">
    <path d="M84.2897 22.2403L99.2498 7.34027C101.77 4.83027 99.9898 0.530273 96.4398 0.530273H52.2997C52.2997 0.530273 28.6398 0.530273 13.0698 19.2803C12.5398 19.9203 12.0197 20.5603 11.4797 21.1803C10.8297 21.9403 9.70974 23.3103 8.41974 25.2303C-0.480258 38.4303 -2.13023 55.1503 3.38977 70.0803C5.88977 76.8203 9.91979 84.8503 16.0898 90.2103L23.0798 83.1203C27.5298 78.6103 28.4298 71.8003 25.5698 66.1503C23.7698 62.5903 22.3598 57.7203 22.5898 51.3403C22.8198 44.9603 24.8998 38.5503 28.9598 33.5203C33.2598 28.1903 40.6198 22.8703 52.8698 23.0103L84.2897 22.2603V22.2403Z" fill="white"/>
    <path d="M16.6799 89.76L1.71986 104.66C-0.80014 107.17 0.979919 111.47 4.52992 111.47H48.6699C48.6699 111.47 72.3299 111.47 87.8999 92.72C88.4299 92.08 88.9499 91.44 89.4899 90.82C90.1399 90.06 91.2599 88.69 92.5499 86.7701C101.45 73.57 103.1 56.85 97.5799 41.92C95.0799 35.18 91.0499 27.15 84.8799 21.79L77.8899 28.88C73.4399 33.39 72.5399 40.2 75.3999 45.85C77.1999 49.41 78.6099 54.28 78.3799 60.66C78.1499 67.04 76.0699 73.45 72.0099 78.48C67.7099 83.81 60.3499 89.13 48.0999 88.99L16.6799 89.74V89.76Z" fill="white"/>
</svg>